<!-- Generated by IcoMoon.io -->
<svg version="1.1" xmlns="http://www.w3.org/2000/svg" width="47" height="32" viewBox="0 0 47 32">
<title>charm_menu-hamburger</title>
<path d="M-0.221 2.077c0-1.205 0.977-2.182 2.182-2.182h42.965c1.205 0 2.182 0.977 2.182 2.182s-0.977 2.182-2.182 2.182h-42.965c-1.205 0-2.182-0.977-2.182-2.182zM-0.221 15.615c0-1.205 0.977-2.182 2.182-2.182h42.965c1.205 0 2.182 0.977 2.182 2.182s-0.977 2.182-2.182 2.182h-42.965c-1.205 0-2.182-0.977-2.182-2.182zM-0.221 29.154c0-1.205 0.977-2.182 2.182-2.182h42.965c1.205 0 2.182 0.977 2.182 2.182s-0.977 2.182-2.182 2.182h-42.965c-1.205 0-2.182-0.977-2.182-2.182z"></path>
</svg>
